<?xml version="1.0" encoding="UTF-8" standalone="no"?>
<svg
   xmlns:dc="http://purl.org/dc/elements/1.1/"
   xmlns:cc="http://creativecommons.org/ns#"
   xmlns:rdf="http://www.w3.org/1999/02/22-rdf-syntax-ns#"
   xmlns:svg="http://www.w3.org/2000/svg"
   xmlns="http://www.w3.org/2000/svg"
   xmlns:sodipodi="http://sodipodi.sourceforge.net/DTD/sodipodi-0.dtd"
   xmlns:inkscape="http://www.inkscape.org/namespaces/inkscape"
   viewBox="0 0 549.08673 148.58627"
   height="148.58627"
   width="549.08673"
   xml:space="preserve"
   id="svg2"
   version="1.1"
   sodipodi:docname="3.svg"
   inkscape:version="0.92.4 5da689c313, 2019-01-14"><sodipodi:namedview
     pagecolor="#ffffff"
     bordercolor="#666666"
     borderopacity="1"
     objecttolerance="10"
     gridtolerance="10"
     guidetolerance="10"
     inkscape:pageopacity="0"
     inkscape:pageshadow="2"
     inkscape:window-width="1920"
     inkscape:window-height="1136"
     id="namedview66"
     showgrid="false"
     inkscape:zoom="2.1638469"
     inkscape:cx="309.48094"
     inkscape:cy="100.93122"
     inkscape:window-x="0"
     inkscape:window-y="27"
     inkscape:window-maximized="1"
     inkscape:current-layer="g10"
     fit-margin-top="0"
     fit-margin-left="0"
     fit-margin-right="0"
     fit-margin-bottom="0" /><metadata
     id="metadata8"><rdf:RDF><cc:Work
         rdf:about=""><dc:format>image/svg+xml</dc:format><dc:type
           rdf:resource="http://purl.org/dc/dcmitype/StillImage" /><dc:title></dc:title></cc:Work></rdf:RDF></metadata><defs
     id="defs6" /><g
     transform="matrix(1.3333333,0,0,-1.3333333,1.1580749,147.29956)"
     id="g10"><g
   aria-label="imise"
   transform="matrix(1,0,0,-1,-10.79736,2.44336)"
   style="font-variant:normal;font-weight:bold;font-size:148.19110107px;font-family:Arial;-inkscape-font-specification:Arial-BoldMT;writing-mode:lr-tb;fill:#187ead;fill-opacity:1;fill-rule:nonzero;stroke:none"
   id="text14"><path
     d="M 30.675558,-80.023195 H 9.9288038 V 0 H 30.675558 Z m 0,-28.008115 H 9.9288038 v 18.523885 H 30.675558 Z"
     id="path173"
     inkscape:connector-curvature="0" /><path
     d="M 50.088591,-80.023195 V 0 h 20.746754 v -48.013917 c 0,-9.928804 5.334879,-15.708256 14.226345,-15.708256 6.964982,0 11.262524,4.001159 11.262524,10.373377 V 0 h 20.746756 v -48.013917 c 0,-9.780612 5.33488,-15.708256 14.22634,-15.708256 6.96499,0 11.26253,4.001159 11.26253,10.373377 V 0 h 20.74675 v -56.609001 c 0,-15.560065 -9.48423,-24.747913 -25.48887,-24.747913 -10.22518,0 -17.19017,3.556586 -23.41419,11.855288 -3.85297,-7.557747 -11.85529,-11.855288 -21.784093,-11.855288 -9.187849,0 -15.115493,2.963822 -21.932283,11.262523 v -9.928804 z"
     id="path175"
     inkscape:connector-curvature="0" /><path
     d="M 203.61457,-80.023195 H 182.86781 V 0 h 20.74676 z m 0,-28.008115 h -20.74676 v 18.523885 h 20.74676 z"
     id="path177"
     inkscape:connector-curvature="0" /><path
     d="m 288.97264,-54.237943 c -0.29638,-16.893786 -13.33719,-27.118971 -34.8249,-27.118971 -20.30218,0 -32.89843,10.225185 -32.89843,26.674398 0,5.334879 1.6301,9.928803 4.44573,13.040817 2.81564,2.815631 5.33488,4.14935 13.04082,6.668599 l 24.74792,7.705937 c 5.18668,1.630103 6.96498,3.260205 6.96498,6.520409 0,4.890306 -5.77946,7.854128 -15.41188,7.854128 -5.48307,0 -9.63242,-0.889146 -12.29986,-2.815631 -2.22287,-1.630102 -3.11201,-3.260204 -4.00116,-7.557746 h -20.30218 c 0.59277,17.6347412 13.48539,26.6743983 37.78873,26.6743983 11.11433,0 19.56123,-2.3710576 25.48887,-7.1131728 5.92765,-4.7421153 9.48423,-12.1516705 9.48423,-20.0057985 0,-10.373377 -5.18669,-17.041977 -15.70826,-20.15399 l -26.22982,-7.557746 c -5.77945,-1.778293 -7.26136,-2.963822 -7.26136,-6.224026 0,-4.445733 4.74211,-7.409555 12.00348,-7.409555 9.9288,0 14.81911,3.556586 14.9673,10.81795 z"
     id="path179"
     inkscape:connector-curvature="0" /><path
     d="m 374.18253,-33.491189 c 0.14819,-1.778293 0.14819,-2.519249 0.14819,-3.556586 0,-8.00232 -1.18553,-15.411875 -3.11201,-21.043137 -5.33488,-14.522728 -18.2275,-23.266002 -34.38034,-23.266002 -22.96962,0 -37.04777,16.597403 -37.04777,43.419992 0,25.637061 13.92996,41.3453173 36.6032,41.3453173 17.93112,0 32.45385,-10.0769948 37.04778,-25.9334423 h -20.45037 c -2.51925,6.372217 -8.29871,10.076995 -15.85645,10.076995 -5.92765,0 -10.66976,-2.519249 -13.63358,-6.964982 -1.92649,-2.963822 -2.66744,-6.520409 -2.96383,-14.078155 z m -53.34879,-13.781772 c 1.33372,-12.299862 6.5204,-18.227506 15.70825,-18.227506 9.48423,0 15.1155,6.372218 16.15283,18.227506 z"
     id="path181"
     inkscape:connector-curvature="0" /></g>
<g
   aria-label="."
   transform="matrix(1,0,0,-1,368.14648,2.44336)"
   style="font-variant:normal;font-weight:bold;font-size:200px;font-family:Arial;-inkscape-font-specification:Arial-BoldMT;writing-mode:lr-tb;fill:#f28b20;fill-opacity:1;fill-rule:nonzero;stroke:none"
   id="text18"><path
     d="m 42.8,-29.2 h -30 V 0 h 30 z"
     id="path252"
     inkscape:connector-curvature="0" /></g>
</g></svg>