<?xml version="1.0" encoding="UTF-8"?><svg xmlns="http://www.w3.org/2000/svg" xmlns:xlink="http://www.w3.org/1999/xlink" fill-opacity="1" color-rendering="auto" color-interpolation="auto" text-rendering="auto" stroke="black" stroke-linecap="square" width="1419" stroke-miterlimit="10" shape-rendering="auto" stroke-opacity="1" fill="black" stroke-dasharray="none" font-weight="normal" stroke-width="1" height="1262" font-family="'Dialog'" font-style="normal" stroke-linejoin="miter" font-size="12px" stroke-dashoffset="0" image-rendering="auto">
  <!--Generated by ySVG 2.6-->
  <defs id="genericDefs"/>
  <g>
    <defs id="defs1">
      <clipPath clipPathUnits="userSpaceOnUse" id="clipPath1">
        <path d="M0 0 L1419 0 L1419 1262 L0 1262 L0 0 Z"/>
      </clipPath>
      <clipPath clipPathUnits="userSpaceOnUse" id="clipPath2">
        <path d="M-2080 -1242 L-661 -1242 L-661 20 L-2080 20 L-2080 -1242 Z"/>
      </clipPath>
    </defs>
    <g fill="white" text-rendering="geometricPrecision" shape-rendering="geometricPrecision" transform="translate(2080,1242)" stroke="white">
      <rect x="-2080" width="1419" height="1262" y="-1242" clip-path="url(#clipPath2)" stroke="none"/>
    </g>
    <g fill="rgb(153,222,30)" text-rendering="geometricPrecision" shape-rendering="geometricPrecision" transform="matrix(1,0,0,1,2080,1242)" stroke="rgb(153,222,30)">
      <rect x="-1463.9701" y="-442.1549" clip-path="url(#clipPath2)" width="261.1758" rx="4" ry="4" height="184.5332" stroke="none"/>
    </g>
    <g font-size="42px" stroke-linecap="butt" transform="matrix(1,0,0,1,2080,1242)" text-rendering="geometricPrecision" font-family="sans-serif" shape-rendering="geometricPrecision" font-weight="bold" stroke-miterlimit="1.45">
      <text x="-1440.7344" xml:space="preserve" y="-340.2703" clip-path="url(#clipPath2)" stroke="none">EntityType</text>
      <rect x="-1463.9701" y="-442.1549" clip-path="url(#clipPath2)" fill="none" width="261.1758" rx="4" ry="4" height="184.5332"/>
    </g>
    <g fill="rgb(255,255,189)" text-rendering="geometricPrecision" shape-rendering="geometricPrecision" transform="matrix(1,0,0,1,2080,1242)" stroke="rgb(255,255,189)">
      <rect x="-969.9645" y="-755.1274" clip-path="url(#clipPath2)" width="260" rx="4" ry="4" height="184" stroke="none"/>
    </g>
    <g font-size="42px" stroke-linecap="butt" transform="matrix(1,0,0,1,2080,1242)" text-rendering="geometricPrecision" font-family="sans-serif" shape-rendering="geometricPrecision" font-weight="bold" stroke-miterlimit="1.45">
      <text x="-928.6266" xml:space="preserve" y="-653.5094" clip-path="url(#clipPath2)" stroke="none">Function</text>
      <rect x="-969.9645" y="-755.1274" clip-path="url(#clipPath2)" fill="none" width="260" rx="4" ry="4" height="184"/>
    </g>
    <g fill="rgb(255,167,0)" text-rendering="geometricPrecision" shape-rendering="geometricPrecision" transform="matrix(1,0,0,1,2080,1242)" stroke="rgb(255,167,0)">
      <rect x="-2020.9893" y="-755.1274" clip-path="url(#clipPath2)" width="260" rx="4" ry="4" height="184" stroke="none"/>
    </g>
    <g font-size="42px" stroke-linecap="butt" transform="matrix(1,0,0,1,2080,1242)" text-rendering="geometricPrecision" font-family="sans-serif" shape-rendering="geometricPrecision" font-weight="bold" stroke-miterlimit="1.45">
      <text x="-1936.4963" xml:space="preserve" y="-653.5094" clip-path="url(#clipPath2)" stroke="none">Role</text>
      <rect x="-2020.9893" y="-755.1274" clip-path="url(#clipPath2)" fill="none" width="260" rx="4" ry="4" height="184"/>
    </g>
    <g fill="rgb(223,225,250)" text-rendering="geometricPrecision" shape-rendering="geometricPrecision" transform="matrix(1,0,0,1,2080,1242)" stroke="rgb(223,225,250)">
      <rect x="-1762.5031" y="-1009.8311" clip-path="url(#clipPath2)" width="126.3389" rx="4" ry="4" height="139.0442" stroke="none"/>
    </g>
    <g font-size="24px" stroke-linecap="butt" transform="matrix(1,0,0,1,2080,1242)" text-rendering="geometricPrecision" font-family="sans-serif" shape-rendering="geometricPrecision" font-weight="bold" stroke-miterlimit="1.45">
      <text x="-1721.3296" xml:space="preserve" y="-934.813" clip-path="url(#clipPath2)" stroke="none">Top</text>
      <rect x="-1762.5031" y="-1009.8311" clip-path="url(#clipPath2)" fill="none" width="126.3389" rx="4" ry="4" height="139.0442"/>
    </g>
    <g fill="rgb(255,255,189)" text-rendering="geometricPrecision" shape-rendering="geometricPrecision" transform="matrix(1,0,0,1,2080,1242)" stroke="rgb(255,255,189)">
      <rect x="-1569.4863" y="-1007.423" clip-path="url(#clipPath2)" width="211.0238" rx="4" ry="4" height="41.2504" stroke="none"/>
    </g>
    <g font-size="24px" stroke-linecap="butt" transform="matrix(1,0,0,1,2080,1242)" text-rendering="geometricPrecision" font-family="sans-serif" shape-rendering="geometricPrecision" font-weight="bold" stroke-miterlimit="1.45">
      <text x="-1514.6382" xml:space="preserve" y="-981.3018" clip-path="url(#clipPath2)" stroke="none">Function</text>
      <rect x="-1569.4863" y="-1007.423" clip-path="url(#clipPath2)" fill="none" width="211.0238" rx="4" ry="4" height="41.2504"/>
    </g>
    <g fill="rgb(255,167,0)" text-rendering="geometricPrecision" shape-rendering="geometricPrecision" transform="matrix(1,0,0,1,2080,1242)" stroke="rgb(255,167,0)">
      <rect x="-1569.4863" y="-959.7301" clip-path="url(#clipPath2)" width="211.0238" rx="4" ry="4" height="41.2504" stroke="none"/>
    </g>
    <g font-size="24px" stroke-linecap="butt" transform="matrix(1,0,0,1,2080,1242)" text-rendering="geometricPrecision" font-family="sans-serif" shape-rendering="geometricPrecision" font-weight="bold" stroke-miterlimit="1.45">
      <text x="-1489.9783" xml:space="preserve" y="-933.6089" clip-path="url(#clipPath2)" stroke="none">Role</text>
      <rect x="-1569.4863" y="-959.7301" clip-path="url(#clipPath2)" fill="none" width="211.0238" rx="4" ry="4" height="41.2504"/>
    </g>
    <g fill="rgb(153,222,30)" text-rendering="geometricPrecision" shape-rendering="geometricPrecision" transform="matrix(1,0,0,1,2080,1242)" stroke="rgb(153,222,30)">
      <rect x="-1569.4863" y="-912.0373" clip-path="url(#clipPath2)" width="211.0238" rx="4" ry="4" height="41.2504" stroke="none"/>
    </g>
    <g font-size="24px" stroke-linecap="butt" transform="matrix(1,0,0,1,2080,1242)" text-rendering="geometricPrecision" font-family="sans-serif" shape-rendering="geometricPrecision" font-weight="bold" stroke-miterlimit="1.45">
      <text x="-1528.6542" xml:space="preserve" y="-885.9161" clip-path="url(#clipPath2)" stroke="none">Entity Type</text>
      <rect x="-1569.4863" y="-912.0373" clip-path="url(#clipPath2)" fill="none" width="211.0238" rx="4" ry="4" height="41.2504"/>
    </g>
    <g fill="rgb(223,225,250)" text-rendering="geometricPrecision" shape-rendering="geometricPrecision" transform="matrix(1,0,0,1,2080,1242)" stroke="rgb(223,225,250)">
      <rect x="-1762.5031" y="-1203.6573" clip-path="url(#clipPath2)" width="126.3389" rx="4" ry="4" height="128.8884" stroke="none"/>
    </g>
    <g font-size="24px" stroke-linecap="butt" transform="matrix(1,0,0,1,2080,1242)" text-rendering="geometricPrecision" font-family="sans-serif" shape-rendering="geometricPrecision" font-weight="bold" stroke-miterlimit="1.45">
      <text x="-1751.3535" xml:space="preserve" y="-1133.717" clip-path="url(#clipPath2)" stroke="none">owlClass</text>
      <rect x="-1762.5031" y="-1203.6573" clip-path="url(#clipPath2)" fill="none" width="126.3389" rx="4" ry="4" height="128.8884"/>
      <rect x="-1335" y="-1208.5916" clip-path="url(#clipPath2)" fill="none" width="30" rx="4" ry="4" height="30"/>
      <rect x="-734.0339" y="-1208.5916" clip-path="url(#clipPath2)" fill="none" width="30" rx="4" ry="4" height="30"/>
      <rect x="-1335" y="-1165.7999" clip-path="url(#clipPath2)" fill="none" width="30" rx="4" ry="4" height="30"/>
      <rect x="-734.0339" y="-1165.7999" clip-path="url(#clipPath2)" fill="none" width="30" rx="4" ry="4" height="30"/>
      <rect x="-1335" y="-1078.1071" clip-path="url(#clipPath2)" fill="none" width="30" rx="4" ry="4" height="30"/>
      <rect x="-734.0339" y="-1078.1071" clip-path="url(#clipPath2)" fill="none" width="30" rx="4" ry="4" height="30"/>
      <rect fill="none" x="-1353.9703" width="667.9406" height="194.8347" y="-1226.2941" clip-path="url(#clipPath2)"/>
      <rect x="-1335" y="-1121.9535" clip-path="url(#clipPath2)" fill="none" width="30" rx="4" ry="4" height="30"/>
      <rect x="-734.0339" y="-1121.9535" clip-path="url(#clipPath2)" fill="none" width="30" rx="4" ry="4" height="30"/>
    </g>
    <g fill="rgb(204,255,153)" text-rendering="geometricPrecision" shape-rendering="geometricPrecision" transform="matrix(1,0,0,1,2080,1242)" stroke="rgb(204,255,153)">
      <rect x="-1075.6639" y="-169.5587" clip-path="url(#clipPath2)" width="182" rx="4" ry="4" height="59" stroke="none"/>
    </g>
    <g font-size="16px" stroke-linecap="butt" transform="matrix(1,0,0,1,2080,1242)" text-rendering="geometricPrecision" font-family="sans-serif" shape-rendering="geometricPrecision" stroke-miterlimit="1.45">
      <text x="-1065.144" xml:space="preserve" y="-136.3947" clip-path="url(#clipPath2)" stroke="none">ApplicationComponent</text>
      <rect x="-1075.6639" y="-169.5587" clip-path="url(#clipPath2)" fill="none" width="182" rx="4" ry="4" height="59"/>
    </g>
    <g fill="rgb(204,255,153)" text-rendering="geometricPrecision" shape-rendering="geometricPrecision" transform="matrix(1,0,0,1,2080,1242)" stroke="rgb(204,255,153)">
      <rect x="-1075.6639" y="-54.2555" clip-path="url(#clipPath2)" width="182" rx="4" ry="4" height="59" stroke="none"/>
    </g>
    <g font-size="16px" stroke-linecap="butt" transform="matrix(1,0,0,1,2080,1242)" text-rendering="geometricPrecision" font-family="sans-serif" shape-rendering="geometricPrecision" stroke-miterlimit="1.45">
      <text x="-1042.464" xml:space="preserve" y="-29.0915" clip-path="url(#clipPath2)" stroke="none">ComputerBased</text>
      <text x="-1065.144" xml:space="preserve" y="-13.0914" clip-path="url(#clipPath2)" stroke="none">ApplicationComponent</text>
      <rect x="-1075.6639" y="-54.2555" clip-path="url(#clipPath2)" fill="none" width="182" rx="4" ry="4" height="59"/>
    </g>
    <g fill="rgb(204,255,153)" text-rendering="geometricPrecision" shape-rendering="geometricPrecision" transform="matrix(1,0,0,1,2080,1242)" stroke="rgb(204,255,153)">
      <rect x="-1520.4085" y="-54.2555" clip-path="url(#clipPath2)" width="182" rx="4" ry="4" height="59" stroke="none"/>
    </g>
    <g font-size="16px" stroke-linecap="butt" transform="matrix(1,0,0,1,2080,1242)" text-rendering="geometricPrecision" font-family="sans-serif" shape-rendering="geometricPrecision" stroke-miterlimit="1.45">
      <text x="-1488.5447" xml:space="preserve" y="-21.0915" clip-path="url(#clipPath2)" stroke="none">SoftwareProduct</text>
      <rect x="-1520.4085" y="-54.2555" clip-path="url(#clipPath2)" fill="none" width="182" rx="4" ry="4" height="59"/>
    </g>
    <g fill="rgb(255,204,0)" text-rendering="geometricPrecision" shape-rendering="geometricPrecision" transform="matrix(1,0,0,1,2080,1242)" stroke="rgb(255,204,0)">
      <rect x="-1944.4737" width="106.9689" height="49.2422" y="-633.5096" clip-path="url(#clipPath2)" stroke="none"/>
    </g>
    <g stroke-linecap="butt" font-size="28px" transform="matrix(1,0,0,1,2080,1242)" fill="gray" text-rendering="geometricPrecision" shape-rendering="geometricPrecision" font-style="italic" stroke="gray" stroke-miterlimit="1.45">
      <text x="-1916.6654" xml:space="preserve" y="-599.7885" clip-path="url(#clipPath2)" stroke="none">who</text>
    </g>
    <g fill="yellow" text-rendering="geometricPrecision" shape-rendering="geometricPrecision" transform="matrix(1,0,0,1,2080,1242)" stroke="yellow">
      <rect x="-1944.4737" width="1" height="49.2422" y="-633.5096" clip-path="url(#clipPath2)" stroke="none"/>
      <rect x="-1943.4737" width="104.9689" height="1" y="-633.5096" clip-path="url(#clipPath2)" stroke="none"/>
      <rect x="-1943.4737" y="-585.2674" clip-path="url(#clipPath2)" fill="rgb(178,142,0)" width="105.9689" height="1" stroke="none"/>
      <rect x="-1838.5049" y="-633.5096" clip-path="url(#clipPath2)" fill="rgb(178,142,0)" width="1" height="48.2422" stroke="none"/>
      <rect x="-919.3504" y="-631.7082" clip-path="url(#clipPath2)" fill="rgb(255,255,227)" width="158.7717" height="49.2422" stroke="none"/>
    </g>
    <g stroke-linecap="butt" font-size="28px" transform="matrix(1,0,0,1,2080,1242)" fill="gray" text-rendering="geometricPrecision" shape-rendering="geometricPrecision" font-style="italic" stroke="gray" stroke-miterlimit="1.45">
      <text x="-903.7768" xml:space="preserve" y="-597.9871" clip-path="url(#clipPath2)" stroke="none">does what</text>
    </g>
    <g fill="white" text-rendering="geometricPrecision" shape-rendering="geometricPrecision" transform="matrix(1,0,0,1,2080,1242)" stroke="white">
      <rect x="-919.3504" width="1" height="49.2422" y="-631.7082" clip-path="url(#clipPath2)" stroke="none"/>
      <rect x="-918.3504" width="156.7717" height="1" y="-631.7082" clip-path="url(#clipPath2)" stroke="none"/>
      <rect x="-918.3504" y="-583.466" clip-path="url(#clipPath2)" fill="rgb(178,178,158)" width="157.7717" height="1" stroke="none"/>
      <rect x="-761.5787" y="-631.7082" clip-path="url(#clipPath2)" fill="rgb(178,178,158)" width="1" height="48.2422" stroke="none"/>
      <rect x="-1432.3254" y="-315.8624" clip-path="url(#clipPath2)" fill="rgb(204,255,51)" width="205.1998" height="49.2422" stroke="none"/>
    </g>
    <g stroke-linecap="butt" font-size="22px" transform="matrix(1,0,0,1,2080,1242)" fill="gray" text-rendering="geometricPrecision" shape-rendering="geometricPrecision" font-style="italic" stroke="gray" stroke-miterlimit="1.45">
      <text x="-1426.9438" xml:space="preserve" y="-284.0912" clip-path="url(#clipPath2)" stroke="none"> information needed</text>
    </g>
    <g fill="rgb(255,255,72)" text-rendering="geometricPrecision" shape-rendering="geometricPrecision" transform="matrix(1,0,0,1,2080,1242)" stroke="rgb(255,255,72)">
      <rect x="-1432.3254" width="1" height="49.2422" y="-315.8624" clip-path="url(#clipPath2)" stroke="none"/>
      <rect x="-1431.3254" width="203.1998" height="1" y="-315.8624" clip-path="url(#clipPath2)" stroke="none"/>
      <rect x="-1431.3254" y="-267.6202" clip-path="url(#clipPath2)" fill="rgb(142,178,35)" width="204.1998" height="1" stroke="none"/>
      <rect x="-1228.1256" y="-315.8624" clip-path="url(#clipPath2)" fill="rgb(142,178,35)" width="1" height="48.2422" stroke="none"/>
    </g>
    <g font-size="22px" stroke-linecap="butt" transform="matrix(1,0,0,1,2080,1242)" text-rendering="geometricPrecision" font-family="sans-serif" shape-rendering="geometricPrecision" stroke-miterlimit="1.45">
      <text x="-1322.5762" xml:space="preserve" y="-934.0669" clip-path="url(#clipPath2)" stroke="none">Role, Function and Entity Type are disjoint.</text>
    </g>
    <g stroke-linecap="butt" transform="matrix(1,0,0,1,2080,1242)" fill="white" text-rendering="geometricPrecision" shape-rendering="geometricPrecision" stroke="white" stroke-miterlimit="1.45">
      <rect fill="none" x="-1357.5752" width="463.9113" height="36.3284" y="-957.2691" clip-path="url(#clipPath2)"/>
      <path fill="none" d="M-1389.2546 -442.1526 L-1389.2546 -472.3937 L-1547.5978 -472.3937 L-1547.5978 -410.5789 L-1472.9664 -410.5789" stroke-width="2" clip-path="url(#clipPath2)" stroke="black"/>
      <path fill="black" d="M-1463.9664 -410.5789 L-1477.4664 -416.2039 L-1474.0914 -410.5789 L-1477.4664 -404.9539 Z" stroke-width="2" clip-path="url(#clipPath2)" stroke="none"/>
    </g>
    <g font-size="24px" stroke-linecap="butt" transform="matrix(1,0,0,1,2080,1242)" text-rendering="geometricPrecision" font-family="sans-serif" shape-rendering="geometricPrecision" stroke-miterlimit="1.45">
      <text x="-1559.5295" xml:space="preserve" y="-482.5363" clip-path="url(#clipPath2)" stroke="none">meta:isBasedOn</text>
      <path fill="none" d="M-1367.1516 -442.1557 L-1367.1516 -509.1419 L-1584.5018 -509.1419 L-1584.5018 -388.4306 L-1472.9962 -388.4306" stroke-width="2" clip-path="url(#clipPath2)"/>
      <path d="M-1463.9962 -388.4306 L-1477.4962 -394.0556 L-1474.1212 -388.4306 L-1477.4962 -382.8056 Z" stroke-width="2" clip-path="url(#clipPath2)" stroke="none"/>
      <text x="-1609.473" xml:space="preserve" y="-518.9879" clip-path="url(#clipPath2)" stroke="none">meta:entityTypeComponent</text>
      <path fill="none" d="M-923.0062 -755.1597 L-923.0062 -788.9013 L-683.2188 -788.9013 L-683.2188 -688.4393 L-700.9412 -688.4393" stroke-width="2" clip-path="url(#clipPath2)"/>
      <path d="M-709.9412 -688.4393 L-696.4412 -682.8143 L-699.8162 -688.4393 L-696.4412 -694.0643 Z" stroke-width="2" clip-path="url(#clipPath2)" stroke="none"/>
      <text x="-946.9283" xml:space="preserve" y="-806.8911" clip-path="url(#clipPath2)" stroke="none">meta:functionComponent</text>
      <path fill="none" d="M-844.3796 -571.1345 L-844.3796 -328.6623 L-1193.7744 -328.6623" stroke-width="2" clip-path="url(#clipPath2)"/>
      <path d="M-1202.7744 -328.6623 L-1189.2744 -323.0373 L-1192.6494 -328.6623 L-1189.2744 -334.2873 Z" stroke-width="2" clip-path="url(#clipPath2)" stroke="none"/>
      <text x="-1154.8032" xml:space="preserve" y="-415.6463" clip-path="url(#clipPath2)" stroke="none">meta:uses</text>
      <path fill="none" d="M-880.9648 -571.152 L-880.9648 -371.0051 L-1193.8114 -371.0051" stroke-width="2" clip-path="url(#clipPath2)"/>
      <path d="M-1202.8114 -371.0051 L-1189.3114 -365.3801 L-1192.6864 -371.0051 L-1189.3114 -376.6301 Z" stroke-width="2" clip-path="url(#clipPath2)" stroke="none"/>
      <text x="-1153.7361" xml:space="preserve" y="-380.5022" clip-path="url(#clipPath2)" stroke="none">meta:updates</text>
      <path fill="none" d="M-810.9503 -571.1526 L-810.9503 -293.8344 L-1193.7472 -293.8344" stroke-width="2" clip-path="url(#clipPath2)"/>
      <path d="M-1202.7472 -293.8344 L-1189.2472 -288.2094 L-1192.6222 -293.8344 L-1189.2472 -299.4594 Z" stroke-width="2" clip-path="url(#clipPath2)" stroke="none"/>
      <text x="-1153.7214" xml:space="preserve" y="-337.9223" clip-path="url(#clipPath2)" stroke="none">meta:increases</text>
      <path fill="none" d="M-918.2518 -571.1582 L-918.2518 -404.7294 L-1193.7833 -404.7294" stroke-width="2" clip-path="url(#clipPath2)"/>
      <path d="M-1202.7833 -404.7294 L-1189.2833 -399.1044 L-1192.6583 -404.7294 L-1189.2833 -410.3544 Z" stroke-width="2" clip-path="url(#clipPath2)" stroke="none"/>
      <text x="-1155.3741" xml:space="preserve" y="-304.9485" clip-path="url(#clipPath2)" stroke="none">meta:decreases</text>
      <path fill="none" d="M-2030.0026 -695.0977 L-2042.0254 -695.0977 L-2042.0254 -785.0472 L-1812.2538 -785.0472 L-1812.2538 -755.1523" stroke-width="2" clip-path="url(#clipPath2)"/>
      <path d="M-2021.0026 -695.0977 L-2034.5026 -700.7227 L-2031.1276 -695.0977 L-2034.5026 -689.4727 Z" stroke-width="2" clip-path="url(#clipPath2)" stroke="none"/>
      <text x="-2035.9536" xml:space="preserve" y="-793.7686" clip-path="url(#clipPath2)" stroke="none">meta:roleComponent</text>
      <path fill="none" d="M-1795.1431 -755.1489 L-1795.1431 -820.5519 L-2064.8372 -820.5519 L-2064.8372 -673.3652 L-2029.998 -673.3652" stroke-width="2" clip-path="url(#clipPath2)"/>
      <path d="M-2020.998 -673.3652 L-2034.498 -678.9902 L-2031.123 -673.3652 L-2034.498 -667.7402 Z" stroke-width="2" clip-path="url(#clipPath2)" stroke="none"/>
      <text x="-2033.3718" xml:space="preserve" y="-834.5944" clip-path="url(#clipPath2)" stroke="none">meta:isResponsibleForRole</text>
      <path fill="none" d="M-1760.984 -619.2924 L-978.9713 -614.389" stroke-width="2" clip-path="url(#clipPath2)"/>
      <path d="M-969.9714 -614.3325 L-983.4359 -620.0421 L-980.0963 -614.3961 L-983.5065 -608.7923 Z" stroke-width="2" clip-path="url(#clipPath2)" stroke="none"/>
      <text x="-1490.8646" xml:space="preserve" y="-628.1152" clip-path="url(#clipPath2)" stroke="none">meta:approvesFunction</text>
      <path fill="none" d="M-1760.9873 -713.4476 L-978.9606 -708.5441" stroke-width="2" clip-path="url(#clipPath2)"/>
      <path d="M-969.9608 -708.4877 L-983.4253 -714.1972 L-980.0856 -708.5512 L-983.4958 -702.9474 Z" stroke-width="2" clip-path="url(#clipPath2)" stroke="none"/>
      <text x="-1458.8486" xml:space="preserve" y="-722.0696" clip-path="url(#clipPath2)" stroke="none">meta:isInvolvedIn</text>
      <path fill="none" d="M-1875.7532 -571.1425 L-1875.7532 -327.9588 L-1472.9695 -327.9588" stroke-width="2" clip-path="url(#clipPath2)"/>
      <path d="M-1463.9695 -327.9588 L-1477.4695 -333.5838 L-1474.0945 -327.9588 L-1477.4695 -322.3338 Z" stroke-width="2" clip-path="url(#clipPath2)" stroke="none"/>
      <text x="-1844.7932" xml:space="preserve" y="-301.7317" clip-path="url(#clipPath2)" stroke="none">meta:approvesEntityType</text>
      <path fill="none" d="M-1760.9805 -663.1274 L-978.9895 -663.1274" stroke-width="2" clip-path="url(#clipPath2)"/>
      <path d="M-969.9895 -663.1274 L-983.4895 -668.7524 L-980.1145 -663.1274 L-983.4895 -657.5024 Z" stroke-width="2" clip-path="url(#clipPath2)" stroke="none"/>
      <text x="-1534.1964" xml:space="preserve" y="-673.6314" clip-path="url(#clipPath2)" stroke="none">meta:isResponsibleForFunction</text>
      <path fill="none" d="M-1914.0233 -571.1022 L-1914.0233 -293.1665 L-1473.0079 -293.1665" stroke-width="2" clip-path="url(#clipPath2)"/>
      <path d="M-1464.0079 -293.1665 L-1477.5079 -298.7915 L-1474.1329 -293.1665 L-1477.5079 -287.5415 Z" stroke-width="2" clip-path="url(#clipPath2)" stroke="none"/>
      <text x="-1872.8889" xml:space="preserve" y="-336.2669" clip-path="url(#clipPath2)" stroke="none">meta:isResponsibleForEntityType</text>
      <path fill="none" d="M-1771.5272 -981.506 L-1804.3708 -981.506 L-1804.3708 -1042.9464 L-1747.1631 -1042.9464 L-1747.1631 -1009.8374" stroke-width="2" clip-path="url(#clipPath2)"/>
      <path d="M-1762.5272 -981.506 L-1776.0272 -987.131 L-1772.6522 -981.506 L-1776.0272 -975.881 Z" stroke-width="2" clip-path="url(#clipPath2)" stroke="none"/>
      <text x="-2015.4248" xml:space="preserve" y="-946.9919" clip-path="url(#clipPath2)" stroke="none">meta:isAssociatedWith</text>
      <path fill="none" d="M-1621.1486 -986.7977 L-1569.5074 -986.7977" clip-path="url(#clipPath2)"/>
    </g>
    <g stroke-linecap="butt" transform="matrix(1,0,0,1,2080,1242)" fill="white" text-rendering="geometricPrecision" shape-rendering="geometricPrecision" stroke="white" stroke-miterlimit="1.45">
      <path d="M-1636.1486 -986.7977 L-1620.1486 -980.7977 L-1620.1486 -992.7977 Z" stroke="none" clip-path="url(#clipPath2)"/>
      <path fill="none" d="M-1636.1486 -986.7977 L-1620.1486 -980.7977 L-1620.1486 -992.7977 Z" clip-path="url(#clipPath2)" stroke="black"/>
      <path fill="none" d="M-1621.1476 -939.1049 L-1569.5074 -939.1049" clip-path="url(#clipPath2)" stroke="black"/>
      <path d="M-1636.1476 -939.1049 L-1620.1476 -933.1049 L-1620.1476 -945.1049 Z" clip-path="url(#clipPath2)" stroke="none"/>
      <path fill="none" d="M-1636.1476 -939.1049 L-1620.1476 -933.1049 L-1620.1476 -945.1049 Z" clip-path="url(#clipPath2)" stroke="black"/>
      <path fill="none" d="M-1621.1512 -891.4121 L-1569.4867 -891.4121" clip-path="url(#clipPath2)" stroke="black"/>
      <path d="M-1636.1512 -891.4121 L-1620.1512 -885.4121 L-1620.1512 -897.4121 Z" clip-path="url(#clipPath2)" stroke="none"/>
      <path fill="none" d="M-1636.1512 -891.4121 L-1620.1512 -885.4121 L-1620.1512 -897.4121 Z" clip-path="url(#clipPath2)" stroke="black"/>
    </g>
    <g text-rendering="geometricPrecision" stroke-miterlimit="1.45" stroke-dasharray="4,3,0,3" shape-rendering="geometricPrecision" transform="matrix(1,0,0,1,2080,1242)" stroke-linecap="round">
      <path fill="none" d="M-1762.5399 -1085.3419 L-1850.4738 -1085.3419 L-1850.4738 -1190.5613 L-1770.4916 -1190.5613" clip-path="url(#clipPath2)"/>
      <path d="M-1762.4916 -1190.5613 L-1774.4916 -1195.5613 L-1771.4916 -1190.5613 L-1774.4916 -1185.5613 Z" clip-path="url(#clipPath2)" stroke="none"/>
    </g>
    <g font-size="24px" stroke-linecap="butt" transform="matrix(1,0,0,1,2080,1242)" text-rendering="geometricPrecision" font-family="sans-serif" shape-rendering="geometricPrecision" stroke-miterlimit="1.45">
      <text x="-2036.7048" xml:space="preserve" y="-1197.385" clip-path="url(#clipPath2)" stroke="none">skos:closeMatch</text>
      <path fill="none" d="M-1636.1608 -1181.5116 L-1592.0955 -1181.5116 L-1592.0955 -1152.9591 L-1627.149 -1152.9591" stroke-width="2" clip-path="url(#clipPath2)"/>
      <path d="M-1636.149 -1152.9591 L-1622.649 -1147.3341 L-1626.024 -1152.9591 L-1622.649 -1158.5841 Z" stroke-width="2" clip-path="url(#clipPath2)" stroke="none"/>
      <text x="-1582.785" xml:space="preserve" y="-1160.8507" clip-path="url(#clipPath2)" stroke="none">rdfs:subClassOf</text>
      <path fill="none" d="M-1636.1382 -1116.2706 L-1591.5658 -1116.2706 L-1591.5658 -1087.7997 L-1627.1278 -1087.7997" stroke-width="2" clip-path="url(#clipPath2)"/>
      <path d="M-1636.1278 -1087.7997 L-1622.6278 -1082.1747 L-1626.0028 -1087.7997 L-1622.6278 -1093.4247 Z" stroke-width="2" clip-path="url(#clipPath2)" stroke="none"/>
      <text x="-1582.8475" xml:space="preserve" y="-1097.7294" clip-path="url(#clipPath2)" stroke="none">skos:related</text>
    </g>
    <g text-rendering="geometricPrecision" stroke-miterlimit="1.45" stroke-dasharray="4,3,0,3" shape-rendering="geometricPrecision" transform="matrix(1,0,0,1,2080,1242)" stroke-linecap="round">
      <path fill="none" d="M-1762.5234 -1095.8909 L-1838.7767 -1095.8909 L-1838.7767 -1174.95 L-1770.5079 -1174.95" clip-path="url(#clipPath2)"/>
      <path d="M-1762.5079 -1174.95 L-1774.5079 -1179.95 L-1771.5079 -1174.95 L-1774.5079 -1169.95 Z" clip-path="url(#clipPath2)" stroke="none"/>
    </g>
    <g font-size="24px" stroke-linecap="butt" transform="matrix(1,0,0,1,2080,1242)" text-rendering="geometricPrecision" font-family="sans-serif" shape-rendering="geometricPrecision" stroke-miterlimit="1.45">
      <text x="-2037.3768" xml:space="preserve" y="-1165.167" clip-path="url(#clipPath2)" stroke="none">skos:exactMatch</text>
    </g>
    <g text-rendering="geometricPrecision" stroke-miterlimit="1.45" stroke-dasharray="4,3,0,3" shape-rendering="geometricPrecision" transform="matrix(1,0,0,1,2080,1242)" stroke-linecap="round">
      <path fill="none" d="M-1762.5042 -1108.4965 L-1826.0508 -1108.4965 L-1826.0508 -1161.1068 L-1770.4994 -1161.1068" clip-path="url(#clipPath2)"/>
      <path d="M-1762.4994 -1161.1068 L-1774.4994 -1166.1068 L-1771.4994 -1161.1068 L-1774.4994 -1156.1068 Z" clip-path="url(#clipPath2)" stroke="none"/>
    </g>
    <g font-size="24px" stroke-linecap="butt" transform="matrix(1,0,0,1,2080,1242)" text-rendering="geometricPrecision" font-family="sans-serif" shape-rendering="geometricPrecision" stroke-miterlimit="1.45">
      <text x="-2053.4353" xml:space="preserve" y="-1130.9354" clip-path="url(#clipPath2)" stroke="none">skos:relatedMatch</text>
    </g>
    <g text-rendering="geometricPrecision" stroke-miterlimit="1.45" stroke-dasharray="4,3,0,3" shape-rendering="geometricPrecision" transform="matrix(1,0,0,1,2080,1242)" stroke-linecap="round">
      <path fill="none" d="M-1762.5399 -1116.675 L-1814.8837 -1117.1975 L-1814.8837 -1149.2422 L-1770.5399 -1149.2422" clip-path="url(#clipPath2)"/>
      <path d="M-1762.5399 -1149.2422 L-1774.5399 -1154.2422 L-1771.5399 -1149.2422 L-1774.5399 -1144.2422 Z" clip-path="url(#clipPath2)" stroke="none"/>
    </g>
    <g font-size="24px" stroke-linecap="butt" transform="matrix(1,0,0,1,2080,1242)" text-rendering="geometricPrecision" font-family="sans-serif" shape-rendering="geometricPrecision" stroke-miterlimit="1.45">
      <text x="-2041.3945" xml:space="preserve" y="-1068.5132" clip-path="url(#clipPath2)" stroke="none">skos:broadMatch</text>
    </g>
    <g text-rendering="geometricPrecision" stroke-miterlimit="1.45" stroke-dasharray="4,3,0,3" shape-rendering="geometricPrecision" transform="matrix(1,0,0,1,2080,1242)" stroke-linecap="round">
      <path fill="none" d="M-1762.5161 -1127.3478 L-1808.0115 -1127.3478 L-1808.0115 -1139.213 L-1770.5082 -1139.213" clip-path="url(#clipPath2)"/>
      <path d="M-1762.5082 -1139.213 L-1774.5082 -1144.213 L-1771.5082 -1139.213 L-1774.5082 -1134.213 Z" clip-path="url(#clipPath2)" stroke="none"/>
    </g>
    <g font-size="24px" stroke-linecap="butt" transform="matrix(1,0,0,1,2080,1242)" text-rendering="geometricPrecision" font-family="sans-serif" shape-rendering="geometricPrecision" stroke-miterlimit="1.45">
      <text x="-2054.4302" xml:space="preserve" y="-1099.7242" clip-path="url(#clipPath2)" stroke="none">skos:narrowMatch</text>
    </g>
    <g stroke-linecap="butt" transform="matrix(1,0,0,1,2080,1242)" fill="rgb(153,153,153)" text-rendering="geometricPrecision" shape-rendering="geometricPrecision" stroke="rgb(153,153,153)" stroke-width="2" stroke-miterlimit="1.45">
      <path fill="none" d="M-1699.3336 -1069.1785 L-1699.3336 -1009.8315" clip-path="url(#clipPath2)"/>
      <path fill="black" d="M-1699.3336 -1073.6785 L-1706.0836 -1060.1785 L-1699.3336 -1073.6785 L-1692.5836 -1060.1785 Z" clip-path="url(#clipPath2)" stroke="none"/>
      <path fill="none" stroke-miterlimit="10" d="M-1699.3336 -1073.6785 L-1706.0836 -1060.1785 L-1699.3336 -1073.6785 L-1692.5836 -1060.1785 Z" stroke-width="1" clip-path="url(#clipPath2)" stroke-linecap="square"/>
      <path fill="none" d="M-1304.9978 -1193.5916 L-743.0192 -1193.5916" clip-path="url(#clipPath2)" stroke="black"/>
      <path fill="black" d="M-734.0192 -1193.5916 L-747.5192 -1199.2166 L-744.1442 -1193.5916 L-747.5192 -1187.9666 Z" clip-path="url(#clipPath2)" stroke="none"/>
    </g>
    <g font-size="22px" stroke-linecap="butt" transform="matrix(1,0,0,1,2080,1242)" text-rendering="geometricPrecision" font-family="sans-serif" shape-rendering="geometricPrecision" stroke-miterlimit="1.45">
      <text x="-1264.7725" xml:space="preserve" y="-1177.7068" clip-path="url(#clipPath2)" stroke="none">relationship between classes of a subontology</text>
    </g>
    <g text-rendering="geometricPrecision" stroke-miterlimit="1.45" stroke-dasharray="4,3,0,3" shape-rendering="geometricPrecision" transform="matrix(1,0,0,1,2080,1242)" stroke-linecap="round">
      <path fill="none" d="M-1304.9978 -1150.7999 L-742.0192 -1150.7999" clip-path="url(#clipPath2)"/>
      <path d="M-734.0192 -1150.7999 L-746.0192 -1155.7999 L-743.0192 -1150.7999 L-746.0192 -1145.7999 Z" clip-path="url(#clipPath2)" stroke="none"/>
    </g>
    <g font-size="22px" stroke-linecap="butt" transform="matrix(1,0,0,1,2080,1242)" text-rendering="geometricPrecision" font-family="sans-serif" shape-rendering="geometricPrecision" stroke-miterlimit="1.45">
      <text x="-1298.9032" xml:space="preserve" y="-1135.4207" clip-path="url(#clipPath2)" stroke="none">relationship between classes of different subontologies</text>
    </g>
    <g stroke-linecap="butt" transform="matrix(1,0,0,1,2080,1242)" fill="rgb(153,153,153)" text-rendering="geometricPrecision" shape-rendering="geometricPrecision" stroke="rgb(153,153,153)" stroke-width="2" stroke-miterlimit="1.45">
      <path fill="none" d="M-1304.9978 -1063.1071 L-739.6442 -1063.1071" clip-path="url(#clipPath2)"/>
      <path fill="black" d="M-735.1442 -1063.1071 L-748.6442 -1069.8571 L-735.1442 -1063.1071 L-748.6442 -1056.3571 Z" clip-path="url(#clipPath2)" stroke="none"/>
      <path fill="none" stroke-miterlimit="10" d="M-735.1442 -1063.1071 L-748.6442 -1069.8571 L-735.1442 -1063.1071 L-748.6442 -1056.3571 Z" stroke-width="1" clip-path="url(#clipPath2)" stroke-linecap="square"/>
    </g>
    <g font-size="22px" stroke-linecap="butt" transform="matrix(1,0,0,1,2080,1242)" text-rendering="geometricPrecision" font-family="sans-serif" shape-rendering="geometricPrecision" stroke-miterlimit="1.45">
      <text x="-1171.8221" xml:space="preserve" y="-1045.8145" clip-path="url(#clipPath2)" stroke="none">instance–class relationship</text>
      <path fill="none" d="M-1304.9978 -1106.9535 L-749.0192 -1106.9535" clip-path="url(#clipPath2)"/>
    </g>
    <g stroke-linecap="butt" transform="matrix(1,0,0,1,2080,1242)" fill="white" text-rendering="geometricPrecision" shape-rendering="geometricPrecision" stroke="white" stroke-miterlimit="1.45">
      <path d="M-734.0192 -1106.9535 L-750.0192 -1112.9535 L-750.0192 -1100.9535 Z" stroke="none" clip-path="url(#clipPath2)"/>
      <path fill="none" d="M-734.0192 -1106.9535 L-750.0192 -1112.9535 L-750.0192 -1100.9535 Z" clip-path="url(#clipPath2)" stroke="black"/>
    </g>
    <g font-size="22px" stroke-linecap="butt" transform="matrix(1,0,0,1,2080,1242)" text-rendering="geometricPrecision" font-family="sans-serif" shape-rendering="geometricPrecision" stroke-miterlimit="1.45">
      <text x="-1173.6481" xml:space="preserve" y="-1092.1278" clip-path="url(#clipPath2)" stroke="none">subclass–class relationship</text>
      <path fill="none" d="M-893.6492 -150.9029 L-853.8295 -150.9029 L-853.8295 -201.9029 L-931.4888 -201.9029 L-931.4888 -178.5611" stroke-width="2" clip-path="url(#clipPath2)"/>
      <path d="M-931.4888 -169.5611 L-925.8638 -183.0611 L-931.4888 -179.6861 L-937.1138 -183.0611 Z" stroke-width="2" clip-path="url(#clipPath2)" stroke="none"/>
      <text x="-1031.7904" xml:space="preserve" font-size="24px" y="-214.2705" clip-path="url(#clipPath2)" stroke="none">meta:communicatesWith</text>
      <path fill="none" d="M-1250.5817 -257.5858 L-1250.5817 -151.4555 L-1084.6641 -151.4555" stroke-width="2" clip-path="url(#clipPath2)"/>
      <path d="M-1075.6641 -151.4555 L-1089.1641 -157.0805 L-1085.7891 -151.4555 L-1089.1641 -145.8305 Z" stroke-width="2" clip-path="url(#clipPath2)" stroke="none"/>
      <text x="-1237.4146" xml:space="preserve" font-size="24px" y="-162.071" clip-path="url(#clipPath2)" stroke="none">meta:master</text>
      <path fill="none" d="M-1075.6909 -126.8661 L-1282.9048 -126.8661 L-1282.9048 -242.6094" clip-path="url(#clipPath2)"/>
    </g>
    <g stroke-linecap="butt" transform="matrix(1,0,0,1,2080,1242)" fill="white" text-rendering="geometricPrecision" shape-rendering="geometricPrecision" stroke="white" stroke-miterlimit="1.45">
      <path d="M-1282.9048 -257.6094 L-1288.9048 -241.6094 L-1276.9048 -241.6094 Z" stroke="none" clip-path="url(#clipPath2)"/>
      <path fill="none" d="M-1282.9048 -257.6094 L-1288.9048 -241.6094 L-1276.9048 -241.6094 Z" clip-path="url(#clipPath2)" stroke="black"/>
      <path fill="none" d="M-893.6581 -129.3707 L-759.39 -129.3707 L-759.39 -562.123" stroke-width="2" clip-path="url(#clipPath2)" stroke="black"/>
      <path fill="black" d="M-759.39 -571.123 L-765.015 -557.623 L-759.39 -560.998 L-753.765 -557.623 Z" stroke-width="2" clip-path="url(#clipPath2)" stroke="none"/>
    </g>
    <g font-size="24px" stroke-linecap="butt" transform="matrix(1,0,0,1,2080,1242)" text-rendering="geometricPrecision" font-family="sans-serif" shape-rendering="geometricPrecision" stroke-miterlimit="1.45">
      <text x="-872.8266" xml:space="preserve" y="-111.8161" clip-path="url(#clipPath2)" stroke="none">meta:supports</text>
      <path fill="none" d="M-984.6639 -95.5854 L-984.6639 -54.2176" clip-path="url(#clipPath2)"/>
    </g>
    <g stroke-linecap="butt" transform="matrix(1,0,0,1,2080,1242)" fill="white" text-rendering="geometricPrecision" shape-rendering="geometricPrecision" stroke="white" stroke-miterlimit="1.45">
      <path d="M-984.6639 -110.5854 L-990.6639 -94.5854 L-978.6639 -94.5854 Z" stroke="none" clip-path="url(#clipPath2)"/>
      <path fill="none" d="M-984.6639 -110.5854 L-990.6639 -94.5854 L-978.6639 -94.5854 Z" clip-path="url(#clipPath2)" stroke="black"/>
      <path fill="none" d="M-1075.6403 -24.7555 L-1329.3846 -24.7555" stroke-width="2" clip-path="url(#clipPath2)" stroke="black"/>
      <path fill="black" d="M-1338.3846 -24.7555 L-1324.8846 -19.1305 L-1328.2596 -24.7555 L-1324.8846 -30.3805 Z" stroke-width="2" clip-path="url(#clipPath2)" stroke="none"/>
    </g>
    <g font-size="24px" stroke-linecap="butt" transform="matrix(1,0,0,1,2080,1242)" text-rendering="geometricPrecision" font-family="sans-serif" shape-rendering="geometricPrecision" stroke-miterlimit="1.45">
      <text x="-1323.7479" xml:space="preserve" y="-35.5435" clip-path="url(#clipPath2)" stroke="none">meta:softwareProduct</text>
      <path fill="none" d="M-1429.4084 -54.2647 L-1429.4084 -242.5733" clip-path="url(#clipPath2)"/>
    </g>
    <g stroke-linecap="butt" transform="matrix(1,0,0,1,2080,1242)" fill="white" text-rendering="geometricPrecision" shape-rendering="geometricPrecision" stroke="white" stroke-miterlimit="1.45">
      <path d="M-1429.4084 -257.5733 L-1435.4084 -241.5733 L-1423.4084 -241.5733 Z" stroke="none" clip-path="url(#clipPath2)"/>
      <path fill="none" d="M-1429.4084 -257.5733 L-1435.4084 -241.5733 L-1423.4084 -241.5733 Z" clip-path="url(#clipPath2)" stroke="black"/>
    </g>
  </g>
</svg>
