<?xml version="1.0" encoding="UTF-8" standalone="no"?>
<svg
   xmlns:dc="http://purl.org/dc/elements/1.1/"
   xmlns:cc="http://creativecommons.org/ns#"
   xmlns:rdf="http://www.w3.org/1999/02/22-rdf-syntax-ns#"
   xmlns:svg="http://www.w3.org/2000/svg"
   xmlns="http://www.w3.org/2000/svg"
   viewBox="0 0 312.78668 98.853333"
   height="98.853333"
   width="312.78668"
   xml:space="preserve"
   id="svg2"
   version="1.1"><metadata
     id="metadata8"><rdf:RDF><cc:Work
         rdf:about=""><dc:format>image/svg+xml</dc:format><dc:type
           rdf:resource="http://purl.org/dc/dcmitype/StillImage" /></cc:Work></rdf:RDF></metadata><defs
     id="defs6" /><g
     transform="matrix(1.3333333,0,0,-1.3333333,0,98.853333)"
     id="g10"><g
       transform="scale(0.1)"
       id="g12"><path
         id="path14"
         style="fill:#2f2826;fill-opacity:1;fill-rule:nonzero;stroke:none"
         d="m 1923.81,741.367 h -475.06 v -89.429 h 176.72 v -398.5 h 121.62 v 398.5 h 176.72 v 89.429 z m -546.67,0 H 1255.52 V 253.438 h 121.62 V 741.367 Z M 868.828,560.359 712.148,741.367 H 606.266 V 253.438 h 121.621 v 304.781 l 131.64,-153.106 h 18.602 L 1009.77,558.219 V 253.438 H 1131.4 V 741.367 H 1025.51 L 868.828,560.359 Z M 366.309,741.367 V 469.504 c 0,-87.281 -59.383,-120.91 -123.774,-120.91 -70.113,0 -120.91,42.211 -120.91,112.324 V 741.367 H 0 V 463.777 C 0,312.813 102.309,246.992 243.965,246.992 c 133.789,0 243.965,55.821 243.965,217.5 V 741.367 H 366.309 v 0" /><path
         id="path16"
         style="fill:#2f2826;fill-opacity:1;fill-rule:nonzero;stroke:none"
         d="m 2345.93,108.105 h -14.17 l -22.44,-49.1987 h -0.33 l -9.55,49.1987 h -13.53 L 2299.77,40.918 2280.34,0 h 14.33 l 51.26,108.105 z m -73.01,0 h -13.69 l 2.55,14.649 h -13.37 l -2.72,-14.649 h -13.04 l -1.6,-10.4878 h 12.57 l -7.48,-43.3399 c -1.9,-10.9765 4.62,-19.8828 18.64,-19.8828 5.24,0 9.07,0.8008 14.79,3.1836 l 0.8,13.2032 c -5.89,-3.3594 -9.07,-4.3165 -13.06,-4.3165 -6.52,0 -8.59,2.8711 -7,11.9532 l 6.85,39.1992 h 14.32 l 1.44,10.4878 z m -60.18,30.254 c -4.28,0 -7.79,-3.496 -7.79,-7.793 0,-4.296 3.51,-7.793 7.79,-7.793 4.3,0 7.8,3.497 7.8,7.793 0,4.297 -3.5,7.793 -7.8,7.793 z m 4.3,-30.254 h -13.51 l -10.04,-71.4839 h 13.53 l 10.02,71.4839 z m -38.6,-5.253 c -6.68,4.628 -14.16,7.48 -21.65,7.48 -13.7,0 -22.44,-8.262 -22.44,-20.5273 0,-19.4336 28.02,-23.7305 28.02,-35.6836 0,-4.6289 -3.83,-7.9688 -9.24,-7.9688 -5.75,0 -12.58,3.1836 -21.97,10.6836 l -2.39,-13.0664 c 10.19,-7.1484 15.91,-9.375 24.83,-9.375 12.59,0 22.13,8.418 22.13,21.3282 0,19.7461 -28.5,24.6875 -28.5,34.8828 0,4.1406 4.14,7.4804 9.72,7.4804 5.9,0 13.37,-3.1836 21.49,-9.3945 v 14.1606 z m -80.97,5.253 h -13.53 l -10.02,-71.4839 h 13.52 l 5.58,40.2734 c 7.48,14.0235 12.25,18.3203 19.26,18.3203 2.86,0 5.08,-0.625 8.27,-2.3828 v 15.273 c -2.39,0.958 -3.82,1.114 -5.89,1.114 -6.85,0 -10.51,-2.871 -18.94,-14.9417 l -0.32,0.3125 2.07,13.5152 z m -82.66,-24.9995 c 3.67,10.8398 9.09,16.0937 17.06,16.0937 8.92,0 12.9,-7.0117 12.9,-16.0937 h -29.96 z m 39.5,-27.8711 c -8.9,-6.5235 -16.55,-9.7071 -23.25,-9.7071 -11.15,0 -21.66,9.0821 -18.32,28.2032 h 44.59 c 3.03,21.8164 -8.9,36.6015 -24.83,36.6015 -19.12,0 -33.92,-17.9882 -33.92,-41.3867 0,-20.8789 11.77,-34.5508 29.94,-34.5508 8.6,0 16.72,2.6953 23.88,7.9493 l 1.91,12.8906 z m -61.36,52.8706 h -13.69 l -22.93,-45.3706 h -0.31 l -9.4,45.3706 h -13.37 l 16.23,-72.9097 h 6.69 l 36.78,72.9097 z m -79.6,30.254 c -4.3,0 -7.79,-3.496 -7.79,-7.793 0,-4.296 3.49,-7.793 7.79,-7.793 4.3,0 7.79,3.497 7.79,7.793 0,4.297 -3.49,7.793 -7.79,7.793 z m 4.3,-30.254 h -13.53 l -10.03,-71.4839 h 13.54 l 10.02,71.4839 z m -79.64,0 h -13.53 l -10.03,-71.4839 h 13.37 l 6.53,45.5469 c 10.19,13.2226 17.67,15.9179 21.49,15.9179 4.14,0 9.55,-3.4961 7.8,-15.9179 l -6.52,-45.5469 h 13.37 l 6.84,45.0586 c 1.92,11.7969 -1.91,27.5393 -17.03,27.5393 -7.96,0 -15.92,-4.453 -23.72,-14.0042 l -0.32,0.3321 1.75,12.5581 z m -38.64,0 h -13.54 l -6.52,-46.5034 c -9.71,-11.6211 -16.24,-15.7618 -21.5,-15.7618 -3.66,0 -9.39,2.3829 -7.63,15.1172 l 6.68,47.148 h -13.53 l -6.69,-47.148 c -2.7,-19.7265 8.92,-25.4492 16.88,-25.4492 9.71,0 17.98,7.3047 23.56,13.2031 l 0.31,-0.332 -1.59,-11.7578 h 13.38 l 10.19,71.4839 z m -131.38,-5.253 c -6.68,4.628 -14.16,7.48 -21.65,7.48 -13.7,0 -22.44,-8.262 -22.44,-20.5273 0,-19.4336 28.02,-23.7305 28.02,-35.6836 0,-4.6289 -3.82,-7.9688 -9.24,-7.9688 -5.75,0 -12.58,3.1836 -21.97,10.6836 l -2.39,-13.0664 c 10.19,-7.1484 15.91,-9.375 24.83,-9.375 12.59,0 22.13,8.418 22.13,21.3282 0,19.7461 -28.5,24.6875 -28.5,34.8828 0,4.1406 4.14,7.4804 9.72,7.4804 5.9,0 13.37,-3.1836 21.49,-9.3945 V 102.852 Z M 1562.14,83.1055 c 3.66,10.8398 9.08,16.0937 17.05,16.0937 8.93,0 12.9,-7.0117 12.9,-16.0937 h -29.95 z m 39.49,-27.8711 c -8.9,-6.5235 -16.55,-9.7071 -23.24,-9.7071 -11.15,0 -21.66,9.0821 -18.32,28.2032 h 44.59 c 3.03,21.8164 -8.91,36.6015 -24.84,36.6015 -19.12,0 -33.91,-17.9882 -33.91,-41.3867 0,-20.8789 11.77,-34.5508 29.93,-34.5508 8.6,0 16.73,2.6953 23.89,7.9493 l 1.9,12.8906 z m -71.47,-2.7149 c -6.69,-3.9648 -12.43,-6.0547 -19.58,-6.0547 -12.11,0 -19.59,8.125 -19.59,21.6797 0,15.1368 12.73,30.0977 32.64,30.0977 3.34,0 6.69,-0.3125 10.35,-1.1133 l 1.75,11.9341 c -4.46,0.8 -8.6,1.269 -12.26,1.269 -28.19,0 -46.32,-19.7265 -46.32,-42.9882 0,-20.0782 12.24,-32.9493 31.51,-32.9493 7.33,0 13.06,1.4258 19.9,5.0782 l 1.6,13.0468 z m -109.17,55.5855 h -13.53 l -10.03,-71.4839 h 13.37 l 6.52,45.5469 c 10.2,13.2226 17.68,15.9179 21.5,15.9179 4.14,0 9.55,-3.4961 7.8,-15.9179 l -6.52,-45.5469 h 13.37 l 6.84,45.0586 c 1.92,11.7969 -1.91,27.5393 -17.03,27.5393 -7.96,0 -15.93,-4.453 -23.72,-14.0042 l -0.32,0.3321 1.75,12.5581 z m -82.1,-24.9995 c 3.66,10.8398 9.08,16.0937 17.05,16.0937 8.92,0 12.91,-7.0117 12.91,-16.0937 h -29.96 z m 39.5,-27.8711 c -8.91,-6.5235 -16.55,-9.7071 -23.24,-9.7071 -11.17,0 -21.67,9.0821 -18.33,28.2032 h 44.59 c 3.02,21.8164 -8.91,36.6015 -24.84,36.6015 -19.12,0 -33.9,-17.9882 -33.9,-41.3867 0,-20.8789 11.76,-34.5508 29.92,-34.5508 8.61,0 16.74,2.6953 23.88,7.9493 l 1.92,12.8906 z m -74.8,83.1246 c -4.29,0 -7.79,-3.496 -7.79,-7.793 0,-4.296 3.5,-7.793 7.79,-7.793 4.3,0 7.8,3.497 7.8,7.793 0,4.297 -3.5,7.793 -7.8,7.793 z m 4.3,-30.254 h -13.52 l -10.03,-71.4839 h 13.53 l 10.02,71.4839 z m -38.37,-55.5855 c -6.69,-3.9648 -12.42,-6.0547 -19.59,-6.0547 -12.1,0 -19.59,8.125 -19.59,21.6797 0,15.1368 12.75,30.0977 32.65,30.0977 3.35,0 6.69,-0.3125 10.35,-1.1133 l 1.76,11.9341 c -4.47,0.8 -8.61,1.269 -12.27,1.269 -28.18,0 -46.32,-19.7265 -46.32,-42.9882 0,-20.0782 12.24,-32.9493 31.51,-32.9493 7.33,0 13.06,1.4258 19.91,5.0782 l 1.59,13.0468 z m -67.77,50.3325 c -6.69,4.628 -14.16,7.48 -21.65,7.48 -13.7,0 -22.45,-8.262 -22.45,-20.5273 0,-19.4336 28.03,-23.7305 28.03,-35.6836 0,-4.6289 -3.82,-7.9688 -9.25,-7.9688 -5.74,0 -12.58,3.1836 -21.96,10.6836 l -2.39,-13.0664 c 10.19,-7.1484 15.91,-9.375 24.83,-9.375 12.59,0 22.13,8.418 22.13,21.3282 0,19.7461 -28.51,24.6875 -28.51,34.8828 0,4.1406 4.15,7.4804 9.73,7.4804 5.9,0 13.37,-3.1836 21.49,-9.3945 V 102.852 Z M 1045.84,83.1055 c 3.67,10.8398 9.09,16.0937 17.06,16.0937 8.92,0 12.9,-7.0117 12.9,-16.0937 h -29.96 z m 39.5,-27.8711 c -8.9,-6.5235 -16.55,-9.7071 -23.25,-9.7071 -11.15,0 -21.66,9.0821 -18.32,28.2032 h 44.59 c 3.03,21.8164 -8.9,36.6015 -24.83,36.6015 -19.12,0 -33.91,-17.9882 -33.91,-41.3867 0,-20.8789 11.77,-34.5508 29.93,-34.5508 8.6,0 16.73,2.6953 23.88,7.9493 l 1.91,12.8906 z m -64.87,52.8706 h -14.49 c 1.44,16.739 9.24,25.821 22.46,25.821 4.14,0 9.39,-1.446 14.01,-3.985 l 1.91,13.36 c -5.89,2.07 -11.3,3.34 -17.36,3.34 -22.45,0 -32.941,-16.856 -34.371,-38.536 h -11.313 l -1.75,-11.9331 h 11.465 L 979.566,6.52344 h 13.215 l 11.449,89.64846 h 14.49 l 1.75,11.9331 z m -59.689,30.254 c -4.293,0 -7.793,-3.496 -7.793,-7.793 0,-4.296 3.5,-7.793 7.793,-7.793 4.297,0 7.793,3.497 7.793,7.793 0,4.297 -3.496,7.793 -7.793,7.793 z m 4.297,-30.254 H 951.559 L 941.523,36.6211 h 13.536 l 10.019,71.4839 z m -31.82,37.11 H 919.73 L 904.453,36.6211 H 917.98 L 933.258,145.215 Z M 756.969,65.4297 c 0,7.6367 5.734,14.9805 16.886,21.1914 5.098,-8.457 16.891,-23.5742 23.739,-31.2305 -7.645,-5.5664 -14.813,-8.4375 -21.028,-8.4375 -11.472,0 -19.597,7.6367 -19.597,18.4766 z m 37.285,58.3003 c 0,-7.324 -6.055,-15.136 -15.301,-19.746 -3.351,7.168 -4.465,11.133 -4.465,16.231 0,8.125 4.621,14.336 10.36,14.336 5.582,0 9.406,-4.453 9.406,-10.821 z m 29.918,-32.4995 c -3.344,-8.5938 -8.758,-18.6328 -17.356,-27.2266 -7.793,8.9063 -18.3,22.7734 -21.804,29.2969 15.922,8.9262 23.074,19.5902 23.074,31.2302 0,12.422 -9.379,22.11 -21.16,22.11 -14.348,0 -25.321,-11.289 -25.321,-25.938 0,-8.594 2.708,-16.406 6.04,-22.9296 -15.286,-6.6992 -25.305,-19.4336 -25.305,-32.1875 0,-16.0937 10.019,-30.3906 30.883,-30.3906 13.222,0 23.418,4.4336 33.593,11.9141 5.887,-6.6797 16.082,-11.9141 23.247,-11.9141 1.437,0 2.867,0.1563 3.824,0.625 l 5.254,11.2891 c -1.274,-0.4688 -2.387,-0.4688 -3.5,-0.4688 -2.235,0 -10.196,0 -19.59,8.9063 10.512,9.8828 18.949,27.5586 22.133,35.6836 H 824.172 Z M 634.68,145.215 H 621.145 L 605.859,36.6211 h 13.536 l 6.523,46.5039 c 6.848,9.3945 15.129,17.031 21.656,17.031 5.887,0 9.391,-4.9412 8.117,-14.0037 l -6.843,-49.5312 h 13.531 l 6.844,48.7305 c 1.91,13.6914 -3.344,24.9804 -16.239,24.9804 -8.437,0 -16.875,-4.766 -24.836,-13.9843 l -0.316,0.3125 6.848,48.5548 z m -39.969,-37.11 H 581.02 l 2.55,14.649 h -13.371 l -2.711,-14.649 h -13.05 l -1.59,-10.4878 h 12.578 l -7.488,-43.3399 c -1.907,-10.9765 4.621,-19.8828 18.628,-19.8828 5.25,0 9.075,0.8008 14.801,3.1836 l 0.797,13.2032 c -5.891,-3.3594 -9.074,-4.3165 -13.055,-4.3165 -6.519,0 -8.589,2.8711 -7,11.9532 l 6.844,39.1992 h 14.328 l 1.43,10.4878 z m -50.625,37.11 H 530.563 L 515.281,36.6211 h 13.528 L 544.086,145.215 Z M 480.453,57.3047 c -4.14,-5.5664 -11.308,-10.9961 -16.723,-10.9961 -8.281,0 -14.175,8.125 -14.175,19.6094 0,9.5508 5.894,35.195 36.789,32.6562 l -5.891,-41.2695 z m 20.699,50.8003 c -3.98,1.27 -11.781,2.227 -16.879,2.227 -34.875,0 -48.55,-24.0234 -48.55,-46.8164 0,-15.6054 10.336,-28.3203 23.55,-28.3203 6.844,0 13.696,3.9649 19.266,10 l 0.316,-0.3125 -1.265,-8.2617 h 13.531 l 10.031,71.4839 z M 376.656,83.1055 c 3.664,10.8398 9.086,16.0937 17.051,16.0937 8.926,0 12.91,-7.0117 12.91,-16.0937 h -29.961 z m 39.496,-27.8711 c -8.902,-6.5235 -16.547,-9.7071 -23.242,-9.7071 -11.152,0 -21.664,9.0821 -18.324,28.2032 h 44.59 c 3.027,21.8164 -8.903,36.6015 -24.828,36.6015 -19.121,0 -33.918,-17.9882 -33.918,-41.3867 0,-20.8789 11.765,-34.5508 29.929,-34.5508 8.606,0 16.731,2.6953 23.887,7.9493 l 1.906,12.8906 z M 307.109,145.215 H 293.574 L 278.289,36.6211 h 13.531 l 6.532,46.5039 c 6.843,9.3945 15.125,17.031 21.648,17.031 5.895,0 9.395,-4.9412 8.121,-14.0037 l -6.848,-49.5312 h 13.536 l 6.847,48.7305 c 1.907,13.6914 -3.343,24.9804 -16.242,24.9804 -8.437,0 -16.875,-4.766 -24.832,-13.9843 l -0.316,0.3125 6.843,48.5548 z M 170.465,83.1055 c 3.66,10.8398 9.082,16.0937 17.051,16.0937 8.922,0 12.906,-7.0117 12.906,-16.0937 h -29.957 z m 39.496,-27.8711 c -8.906,-6.5235 -16.555,-9.7071 -23.242,-9.7071 -11.156,0 -21.668,9.0821 -18.324,28.2032 h 44.589 c 3.024,21.8164 -8.906,36.6015 -24.836,36.6015 -19.121,0 -33.91,-17.9882 -33.91,-41.3867 0,-20.8789 11.77,-34.5508 29.926,-34.5508 8.609,0 16.734,2.6953 23.887,7.9493 l 1.91,12.8906 z M 100.914,145.215 H 87.3828 L 72.0977,36.6211 h 13.5312 l 6.5313,46.5039 c 6.8437,9.3945 15.1208,17.031 21.6488,17.031 5.886,0 9.394,-4.9412 8.121,-14.0037 l -6.848,-49.5312 h 13.531 l 6.848,48.7305 c 1.906,13.6914 -3.344,24.9804 -16.242,24.9804 -8.438,0 -16.875,-4.766 -24.8323,-13.9843 l -0.3203,0.3125 6.8476,48.5548 z M 60.9492,108.105 H 47.2617 l 2.543,14.649 H 36.4336 L 33.7305,108.105 H 20.6797 L 19.0859,97.6172 H 31.6602 L 24.1797,54.2773 C 22.2695,43.3008 28.793,34.3945 42.8008,34.3945 c 5.2539,0 9.0742,0.8008 14.8047,3.1836 l 0.7929,13.2032 c -5.8867,-3.3594 -9.0703,-4.3165 -13.0507,-4.3165 -6.5235,0 -8.5938,2.8711 -7.0039,11.9532 l 6.8476,39.1992 h 14.3242 l 1.4336,10.4878 v 0" /></g></g></svg>